<svg xmlns="http://www.w3.org/2000/svg" viewBox="0 0 293.82 75.54"><defs><style>.cls-1{fill:#158f27;}.cls-2{fill:#148f26;}.cls-3{fill:#168f27;}.cls-4{fill:#169028;}.cls-5{fill:#138f25;}.cls-6{fill:#158f26;}.cls-7{fill:#179028;}</style></defs><title>Risorsa 1</title><g id="Livello_2" data-name="Livello 2"><g id="Livello_1-2" data-name="Livello 1"><path class="cls-1" d="M83.89,11c-1.85,4.46-3.6,8.7-5.36,12.93A5.71,5.71,0,0,1,78,25.12c-.35.45-.75,1.05-1.23,1.17-.91.23-.92-.69-1.07-1.26-1.24-4.7-2.46-9.42-3.69-14.12q-1.16-4.41-2.3-8.8C69.29.46,69.35.38,71,.38c3.6,0,3.6,0,4.44,3.55l2.23,9.36c.26-.55.43-.88.57-1.22,1.51-3.69,3-7.39,4.56-11.06A1.84,1.84,0,0,1,84,0c.31,0,.87.56,1.05,1,1.54,3.64,3,7.3,4.51,11,.17.4.35.79.63,1.44.95-4,1.89-7.73,2.68-11.47.27-1.24.79-1.68,2-1.55a14.67,14.67,0,0,0,2.39,0c1,0,1.26.32,1,1.31-1.69,6.36-3.33,12.73-5,19.1-.39,1.51-.74,3-1.2,4.51-.13.4-.62,1-.9,1A1.62,1.62,0,0,1,90,25.41c-1.92-4.47-3.78-9-5.65-13.46C84.24,11.7,84.12,11.46,83.89,11Z"/><path class="cls-2" d="M169.84,11c4.3-3.26,5.75-3.25,9.59,0,.38-.34.75-.7,1.14-1a6,6,0,0,1,9.53,2.54,13.4,13.4,0,0,1,.69,3.87c.11,2.71,0,5.43.05,8.15,0,1-.35,1.38-1.34,1.32a21,21,0,0,0-2.63,0c-.89.05-1.23-.34-1.22-1.2,0-2.31,0-4.63,0-6.95a15.18,15.18,0,0,0-.1-1.91,2,2,0,0,0-2.13-2,2.13,2.13,0,0,0-2.19,2,10.26,10.26,0,0,0-.11,1.67c0,2.36,0,4.71,0,7.07,0,.94-.26,1.43-1.3,1.35a19.38,19.38,0,0,0-2.64,0c-.94.05-1.27-.36-1.26-1.28,0-2.44,0-4.87,0-7.31a11.49,11.49,0,0,0-.05-1.44c-.18-1.39-.77-2-1.91-2a2.2,2.2,0,0,0-2.36,2.06,10,10,0,0,0-.1,1.55c0,2.24,0,4.48,0,6.71,0,1.66-.06,1.71-1.66,1.72-.8,0-1.6,0-2.39,0s-1.13-.34-1.13-1.15c0-4.83,0-9.67,0-14.5,0-.39.47-1.1.72-1.1a4.74,4.74,0,0,1,2.15.52C169.57,9.84,169.63,10.5,169.84,11Z"/><path class="cls-1" d="M164.38,52c.44-1,.47-2.17,2-2.08,1.13.06,1.57.38,1.56,1.54-.05,3.63,0,7.27,0,10.91,0,1.8,0,3.61-.11,5.4-.4,5.07-4.3,8.21-9.33,7.46a21.32,21.32,0,0,1-4-1.22,1.24,1.24,0,0,1-.8-2,1.17,1.17,0,0,1,0-.11c.4-.91.58-2.14,1.27-2.61.44-.3,1.64.51,2.51.82.22.08.45.14.68.2,3,.74,4.76-.75,4.48-3.91-.61.19-1.2.41-1.81.56a7.31,7.31,0,0,1-8.94-4.91,11.11,11.11,0,0,1-.34-5.91C152.93,49.72,159.92,47.25,164.38,52Zm-1.15,6.32a3.46,3.46,0,0,0-3.38-3.6,3.68,3.68,0,1,0,3.38,3.6Z"/><path class="cls-3" d="M5.37,46.57c0,.5-.06.85-.06,1.21,0,1.07,0,2.14,0,3.37h6.77c1.61,0,1.63,0,1.63,1.59v1.92c0,1.88,0,1.88-1.82,1.88H5.37v4.87H12.8c2.9,0,2.59-.22,2.58,2.57,0,3.16.4,2.81-2.8,2.82-3.68,0-7.36,0-11,0C.43,66.83,0,66.55,0,65.34c.05-7.56,0-15.11,0-22.67,0-1.07.25-1.5,1.4-1.48,4.2.06,8.4.05,12.6,0,1,0,1.46.32,1.39,1.38a21.18,21.18,0,0,0,0,2.76c.06.94-.33,1.27-1.26,1.26C11.26,46.55,8.38,46.57,5.37,46.57Z"/><path class="cls-1" d="M79.42,66.86a18.5,18.5,0,0,1-4.17.42c-3.56-.41-6-3.21-6.32-7.06-.23-3.14-.19-6.3-.3-9.46,0-.72.33-.88,1-.85a25,25,0,0,0,2.87,0c.91-.07,1.19.26,1.19,1.14,0,2.72.06,5.43.17,8.15.08,1.74,1,2.84,2.4,3a2.71,2.71,0,0,0,3-2.56,50.26,50.26,0,0,0,.35-5.49q.06-1.56,0-3.12c0-.75.25-1.11,1-1.08,1,0,1.91,0,2.87,0,.7,0,1,.3,1,1,0,5.67.18,11.36-.06,17-.22,5.26-4.55,8.42-9.74,7.4A23.19,23.19,0,0,1,70.9,74a1,1,0,0,1-.59-1.56c.35-.8.66-1.63,1-2.46s.72-.91,1.45-.48a8.86,8.86,0,0,0,2.18,1C77.89,71.31,79.61,69.85,79.42,66.86Z"/><path class="cls-2" d="M108.88,50.38a16.88,16.88,0,0,1,3-.81c3.72-.27,6.24,1.9,6.61,6,.3,3.38.15,6.79.2,10.19a.92.92,0,0,1-1,1c-1,0-1.92,0-2.88,0s-1.26-.39-1.25-1.3c0-2.44,0-4.88,0-7.31a7.56,7.56,0,0,0-.39-2.22,1.88,1.88,0,0,0-2-1.25A1.84,1.84,0,0,0,109.22,56a9.88,9.88,0,0,0-.33,2.36q-.06,3.53,0,7.07c0,1-.29,1.42-1.31,1.35a19.26,19.26,0,0,0-2.52,0c-1.06.06-1.37-.42-1.37-1.44q0-11.39,0-22.78c0-1.05.38-1.46,1.41-1.39a17.48,17.48,0,0,0,2.4,0c1.08-.09,1.4.42,1.39,1.42C108.86,45.21,108.88,47.8,108.88,50.38Z"/><path class="cls-1" d="M222,55a7.41,7.41,0,0,0-1-.06c-.9,0-1.21-.42-1.18-1.25s0-1.61,0-2.4c0-1,.34-1.44,1.33-1.37a4.12,4.12,0,0,0,.7,0c.12-1.26.14-2.5.36-3.71,1.14-6.26,7.64-6.32,10.94-4,.31.21.4.92.37,1.38A3.38,3.38,0,0,1,233,44.7c-.38.65-.63,1.56-1.19,1.87s-1.29-.27-2-.44c-1.56-.41-2.5.24-2.62,1.84,0,.59,0,1.19,0,2,1.16,0,2.26,0,3.36,0,.9,0,1.35.31,1.3,1.26a21.19,21.19,0,0,0,0,2.52c.05,1-.42,1.27-1.31,1.24-1.07,0-2.14,0-3.32,0,0,.55-.06,1-.06,1.4,0,3,0,6.08,0,9.12,0,1-.36,1.4-1.35,1.35a23.54,23.54,0,0,0-2.52,0c-1,0-1.34-.4-1.33-1.37,0-3,0-6,0-9Z"/><path class="cls-1" d="M251,51.91c.29-.27.49-.44.68-.63a6.08,6.08,0,0,1,10.17,2.41,15.37,15.37,0,0,1,.61,4c.09,2.56,0,5.12,0,7.68,0,1.1-.4,1.53-1.49,1.44a14.46,14.46,0,0,0-2.28,0c-1.12.08-1.46-.42-1.43-1.49.06-2.36,0-4.72,0-7.07a7.69,7.69,0,0,0-.09-1.44c-.26-1.46-1-2.15-2.31-2.09A2.18,2.18,0,0,0,252.72,57c-.1,1.36-.07,2.72-.08,4.08,0,1.51,0,3,0,4.55,0,.86-.33,1.25-1.21,1.21s-1.92,0-2.88,0c-.74,0-1.09-.34-1.09-1.1,0-4.88,0-9.75,0-14.63,0-.37.47-1,.77-1.06.77-.09,1.73-.43,2.24.58A13.69,13.69,0,0,1,251,51.91Z"/><path class="cls-1" d="M136.78,52a5.77,5.77,0,0,1,4.15-2.48c4-.33,6.76,1.82,7.11,6,.28,3.37.15,6.78.19,10.18,0,.76-.42,1-1.15,1-.92,0-1.84,0-2.76,0s-1.28-.37-1.27-1.29c0-2.48,0-5,0-7.44a9.17,9.17,0,0,0-.19-1.65,2,2,0,0,0-2.13-1.71,2.16,2.16,0,0,0-2.21,1.82,10.71,10.71,0,0,0-.13,1.79c0,2.4,0,4.8,0,7.2,0,.9-.31,1.34-1.27,1.28a21.19,21.19,0,0,0-2.52,0c-1,.06-1.42-.34-1.41-1.39,0-4.72,0-9.44,0-14.15,0-.44.4-1.2.7-1.24.79-.11,1.81-.49,2.32.6C136.45,51,136.55,51.38,136.78,52Z"/><path class="cls-1" d="M146.19,17.45c0-5.88,5.43-10.16,10.65-8.4a9,9,0,0,1,5.62,10.23A8.4,8.4,0,0,1,154,26.34C149.73,26.19,146.18,22.16,146.19,17.45Zm11.51.18a3.53,3.53,0,0,0-3.09-3.77,3.45,3.45,0,0,0-3.49,3.49,3.51,3.51,0,0,0,3.21,3.77A3.44,3.44,0,0,0,157.7,17.63Z"/><path class="cls-1" d="M271.4,59.31c.21,1.89,1.44,3,3.2,2.85a19,19,0,0,0,2.91-.95,1.58,1.58,0,0,1,1.17.2,5.62,5.62,0,0,1,.92,1.25c1.19,1.69,1.16,2.09-.6,3.22a8.08,8.08,0,0,1-8.23.49c-2.95-1.39-4.29-4-4.55-7.12a9,9,0,0,1,3-7.77,7.57,7.57,0,0,1,8.61-1.1,8.09,8.09,0,0,1,4,7.89c-.1.82-.55,1-1.3,1-2.56,0-5.12,0-7.68,0ZM276.45,56c-.33-1.44-1.08-2.11-2.25-2.1s-1.93.74-2.19,2.1Z"/><path class="cls-1" d="M40,59.31c.23,1.91,1.47,3,3.22,2.85a20.56,20.56,0,0,0,2.91-.95,1.48,1.48,0,0,1,1.16.21,5.83,5.83,0,0,1,.93,1.24c1.19,1.69,1.15,2.09-.61,3.22a8.08,8.08,0,0,1-8.24.49c-2.95-1.4-4.29-4-4.54-7.13a9,9,0,0,1,3.07-7.85,7.57,7.57,0,0,1,8.62-1,8.12,8.12,0,0,1,3.86,7.84c-.11.83-.56,1-1.31,1-2.56,0-5.12,0-7.68,0Zm5-3.29c-.26-1.42-1.08-2.15-2.3-2.09a2.09,2.09,0,0,0-2,2.09Z"/><path class="cls-1" d="M105.1,18.44a3.06,3.06,0,0,0,4.06,2.79,5.58,5.58,0,0,0,1.85-.81c.72-.5,1.15-.33,1.55.34.2.34.46.66.69,1,1.25,1.78,1.18,2.18-.7,3.38-4.13,2.66-11.85,1.35-12.64-6.63-.49-4.91,2.58-9.09,7-9.76,4.69-.7,9,3.2,8.48,8.78-.07.78-.59.94-1.27.94-2.59,0-5.19,0-7.78,0Zm.56-3.26h4.44c-.23-1.36-.91-2-2.06-2.09S106,13.71,105.66,15.18Z"/><path class="cls-1" d="M200.14,18.5a3,3,0,0,0,4.06,2.73,5.58,5.58,0,0,0,1.85-.81c.72-.51,1.15-.33,1.55.35.21.34.46.65.69,1,1.25,1.77,1.18,2.17-.7,3.38-4.14,2.65-11.85,1.34-12.64-6.64-.49-4.91,2.58-9.09,7-9.76,4.7-.7,9,3.21,8.48,8.79-.07.78-.59.93-1.27.93-2.6,0-5.19,0-7.79,0C201,18.44,200.57,18.48,200.14,18.5Zm.57-3.25h4.46c-.31-1.51-1-2.18-2.24-2.17S201,13.79,200.71,15.25Z"/><path class="cls-1" d="M90.51,49.85c0-1.42,0-2.77,0-4.13,0-.86.31-1.25,1.19-1.21a25.41,25.41,0,0,0,2.76,0c1-.07,1.25.41,1.24,1.29,0,1.31,0,2.62,0,4.14.93,0,1.8,0,2.66,0s1.3.39,1.27,1.3,0,1.68,0,2.52S99.22,55,98.36,55s-1.66,0-2.63,0c0,2.13,0,4.15,0,6.17,0,1,.81.93,1.53.84,2.17-.29,2.17-.28,2.61,1.84.51,2.46.49,2.49-2,3.08l-.24.06c-4.75,1-7.13-.86-7.14-5.73,0-2,0-4.07,0-6.15a5,5,0,0,0-.88-.1c-.86,0-1.12-.42-1.09-1.19s0-1.28,0-1.92C88.55,50.05,88.55,50.05,90.51,49.85Z"/><path class="cls-3" d="M128.49,17.5c.2-5.57,4.88-9.69,10-8.7a7.29,7.29,0,0,1,4.13,2.49,1,1,0,0,1-.07,1.66c-.23.22-.44.46-.67.69-.53.53-1,1.34-1.64,1.49s-1.17-.62-1.8-.91a3.71,3.71,0,0,0-1.25-.35A3.41,3.41,0,0,0,134,16.35a3.86,3.86,0,0,0,1.38,4.27,3.05,3.05,0,0,0,3.87-.31c.93-1,1.6-.95,2.36.05.05.07.12.11.17.17,2,1.9,2,2.46-.16,4.26-3.89,3.21-10.24,1.37-12.23-3.6A27.64,27.64,0,0,1,128.49,17.5Z"/><path class="cls-3" d="M194.05,66.1c-.24-.09-.68-.25-.76-.59a1.65,1.65,0,0,1,.19-1s0-.08,0-.11c.41-.82.62-2,1.28-2.35s1.64.35,2.5.52a9.58,9.58,0,0,0,2.13.23c.32,0,.64-.34,1-.52-.19-.32-.31-.75-.59-.94-.56-.38-1.21-.61-1.8-.93a24.81,24.81,0,0,1-2.73-1.49c-2-1.37-2.43-3.39-1.94-5.62a4.58,4.58,0,0,1,4.12-3.64,11.77,11.77,0,0,1,6.67.92,1.07,1.07,0,0,1,.61,1.71c-.43.81-.62,2-1.28,2.35s-1.65-.34-2.51-.51a11.34,11.34,0,0,0-2-.22c-.26,0-.53.26-.79.4a2.59,2.59,0,0,0,.48.85,7.33,7.33,0,0,0,1.28.65,33.3,33.3,0,0,1,3,1.47,5,5,0,0,1,2.57,5.58,5.08,5.08,0,0,1-1.11,2.4A5.75,5.75,0,0,1,201.29,67S198.66,67.71,194.05,66.1Z"/><path class="cls-4" d="M25.53,57.3C26.47,55,27.33,53,28.12,51a1.42,1.42,0,0,1,1.61-1.07c.88.07,1.76,0,2.64,0,1,0,1.36.45.94,1.37Q29.9,58.9,26.42,66.46c-.15.31-.58.7-.85.68a1.41,1.41,0,0,1-1-.69q-3.45-7.52-6.81-15.06c-.44-1-.14-1.39,1-1.45H19c3.57-.07,3.56-.06,4.88,3.27C24.39,54.49,24.91,55.77,25.53,57.3Z"/><path class="cls-5" d="M119.07,13.25c0-3.79,0-7.59,0-11.38,0-1.17.38-1.61,1.53-1.5a14.67,14.67,0,0,0,2.39,0c1-.06,1.27.39,1.27,1.28q0,11.51,0,23c0,.92-.35,1.31-1.29,1.25a21,21,0,0,0-2.63,0c-.94.05-1.27-.34-1.27-1.27C119.09,20.84,119.07,17.05,119.07,13.25Z"/><path class="cls-3" d="M58.08,52.16a4.48,4.48,0,0,1,5.72-2.38c1.51.44,1.67.82,1,2.2-.2.44-.44.86-.61,1.3-.44,1.22-.94,2-2.58,1.58-1.25-.36-2.15.71-2.18,2.33-.05,2.55,0,5.11,0,7.67,0,1.94,0,2-1.92,1.94-3.75,0-3.23.42-3.25-3.24,0-4,0-8,0-12,0-.64-.22-1.41.77-1.62,1.41-.28,2.14,0,2.56,1Z"/><path class="cls-1" d="M123.15,58.35c0-2.35,0-4.71,0-7.06,0-1,.33-1.41,1.32-1.36s1.84,0,2.76,0c.75,0,1.11.32,1.11,1.07q0,7.37,0,14.73c0,.75-.38,1.08-1.13,1.06-1,0-1.91,0-2.87,0s-1.18-.42-1.17-1.26C123.16,63.15,123.15,60.75,123.15,58.35Z"/><path class="cls-1" d="M182.19,58.31c0-2.31,0-4.63,0-6.94,0-1.13.42-1.51,1.48-1.44.84,0,1.68,0,2.52,0s1.19.3,1.19,1.12q0,7.31,0,14.61c0,.8-.37,1.17-1.18,1.14s-1.83,0-2.75,0-1.27-.39-1.26-1.3C182.21,63.11,182.19,60.71,182.19,58.31Z"/><path class="cls-1" d="M237.15,58.3c0-2.31,0-4.63,0-6.94,0-1,.31-1.49,1.37-1.43.88,0,1.76,0,2.64,0s1.18.31,1.18,1.13q0,7.3,0,14.61c0,.81-.38,1.16-1.19,1.13s-1.83,0-2.75,0-1.26-.4-1.25-1.31C237.17,63.1,237.15,60.7,237.15,58.3Z"/><path class="cls-6" d="M218.8.38c3,0,3.23,0,3,3-.33,4-1,7.9-1.56,11.85-.12.92-.82.81-1.46.81s-1.22.06-1.34-.8c-.63-4.58-1.88-9.07-1.65-13.76,0-.8.28-1.19,1.12-1.14C217.53.41,218.17.38,218.8.38Z"/><path class="cls-4" d="M293.82,63.23a3.74,3.74,0,1,1-7.47,0,3.75,3.75,0,1,1,7.47,0Z"/><path class="cls-4" d="M222,22.89a3.24,3.24,0,1,1-6.47,0,3.24,3.24,0,1,1,6.47,0Z"/><path class="cls-7" d="M239.64,47.54a3,3,0,0,1-2.88-3.18,3.11,3.11,0,0,1,3-3.15,3.14,3.14,0,0,1,2.95,3.28A3,3,0,0,1,239.64,47.54Z"/><path class="cls-7" d="M184.74,47.55a3.05,3.05,0,0,1-2.94-3.14,3,3,0,1,1,5.9,0A3.06,3.06,0,0,1,184.74,47.55Z"/><path class="cls-7" d="M128.66,44.41a3,3,0,1,1-5.9,0,3,3,0,1,1,5.9,0Z"/></g></g></svg>